<?xml version="1.0" encoding="UTF-8"?>
<svg width="98px" height="63px" viewBox="0 0 98 63" version="1.1" xmlns="http://www.w3.org/2000/svg" xmlns:xlink="http://www.w3.org/1999/xlink">
    <!-- Generator: Sketch 51.3 (57544) - http://www.bohemiancoding.com/sketch -->
    <title>Shape</title>
    <desc>Created with Sketch.</desc>
    <defs></defs>
    <g id="Page-1" stroke="none" stroke-width="1" fill="none" fill-rule="evenodd">
        <g id="hivemind-press-6" transform="translate(-103.000000, -87.000000)" fill="#000000" fill-rule="nonzero">
            <g id="e9e4fa61-40f3-98c9-884a-8f78ddb43952" transform="translate(102.000000, 87.000000)">
                <g id="Group">
                    <path d="M98.1158782,13.9711867 C95.0261529,12.7448726 91.6647819,12.4419583 88.3659481,12.378444 C86.3266512,12.665724 84.3196001,13.1748154 82.2803032,13.4298496 C82.3770403,13.4933639 82.4884346,13.5568782 82.5841946,13.6213696 C80.4159149,13.9711867 78.5046237,15.102718 76.3861783,15.596175 C73.3267444,16.3759349 70.6200591,18.0497804 67.5606252,18.7826375 C66.8277681,18.9253003 66.1584254,19.3239745 65.4412026,19.5154945 C64.6125856,19.7548945 63.8807057,20.2805973 63.0042087,20.4076258 C62.2234716,20.5190201 61.6352317,21.1883629 60.8222489,21.1717514 C60.5984833,20.8688372 60.3131576,20.4867744 60.487089,20.1047116 C60.7108547,19.5154945 60.7587347,18.7191232 61.4280774,18.4963347 C62.8126887,17.9549976 64.0722257,17.1263806 65.2995169,16.2821292 C65.8564883,15.5971522 66.5570996,15.054838 67.3212252,14.6248952 C67.7843909,14.0200438 67.8156594,13.1914268 68.1977222,12.5377183 C68.8025736,11.4218213 68.8826993,10.1476272 69.2002707,8.93694737 C69.263785,8.60276456 69.0888764,8.28421603 69.0097278,7.94905607 C71.0001676,6.72274195 73.057053,5.55896497 74.7133099,3.87046234 C74.1397272,3.53627952 73.6452929,3.10633672 73.0726873,2.77117677 C72.4991045,3.34378241 71.8131503,3.77470235 71.064659,4.09325088 C70.0611334,4.8417422 68.6745679,5.06453075 67.9260766,6.1315706 C67.641728,6.92989621 66.9401396,7.39110758 66.4457053,8.02918178 C65.8242426,9.15973591 65.888734,10.4984214 65.8086083,11.741347 C64.9008427,12.0598955 63.80058,12.0911641 63.1644601,12.8875354 C62.4482144,13.7640324 61.5717174,14.4656209 60.7597118,15.2453808 C60.4558204,15.6596893 60.2965462,16.1541235 60.0737576,16.6153349 C59.1337463,16.2332721 58.1311979,16.4238149 57.269358,16.9016377 L56.7934895,16.5185978 C57.3182151,15.7065922 58.0354379,14.8300951 57.8761636,13.7943239 C57.7481579,12.9178268 58.1790779,11.9143013 57.5576151,11.1658099 C56.5540895,9.9394958 54.9124897,9.66785013 53.5269014,9.07863306 C54.3564955,8.48843886 55.167524,7.88358751 56.0283867,7.32563901 C57.9562893,6.06707918 59.5812777,4.41082226 61.4759574,3.07213673 C62.4472373,2.26208541 63.9608314,1.46571409 63.9119742,0 C62.3671116,0.556971354 60.8066147,1.16279984 59.5949577,2.3099654 C57.7804036,3.48937667 56.488621,5.35278785 54.4669127,6.21365059 C53.6373185,6.45207342 53.0481014,7.1057819 52.2829987,7.47221042 C51.0889303,7.32857044 49.8938847,7.09014762 48.6998163,7.1057819 C47.8868335,7.15366189 47.3611308,7.99791321 46.6126394,8.1737989 C45.2426853,7.64809611 43.9841255,6.88299336 42.6141714,6.34165629 C40.8299088,5.68794781 39.475589,4.25447943 37.867212,3.29883384 C36.5451379,2.42233682 35.1116696,1.29178268 33.4231669,1.67384549 C33.629344,2.21518256 33.7895954,2.85227962 34.3152982,3.18743957 C35.3354352,3.8880509 36.5295037,4.3179937 37.5173949,5.08211932 C38.7437091,6.02213062 40.0179032,6.91426193 41.4357373,7.55135898 C42.0572,7.9177875 42.8692057,8.0936732 43.2835142,8.74640454 C42.7744228,9.38350159 42.2321086,9.98933008 42.0572,10.8179471 C41.6907715,10.9459528 41.324343,11.0729814 40.9413031,11.2009871 C40.8777888,12.2367584 40.304206,13.3037982 40.5426288,14.3552038 C41.132823,15.5013922 41.5784001,16.7286835 41.4025144,18.0351233 C40.6540231,17.7165748 39.8576518,17.4292948 39.2205547,16.903592 C38.9176405,17.1107463 38.6147262,17.3012891 38.3127891,17.5094205 C38.0890234,17.0315977 37.8828463,16.5694092 37.6913264,16.0915864 C36.6721665,15.6450322 35.7966466,14.8809066 35.1263267,13.9887753 C35.2699667,13.7493753 35.4448752,13.5588325 35.6363952,13.3516782 C35.6197838,13.2236725 35.6041495,13.0810097 35.6041495,12.953004 C34.6797725,13.0643982 33.7553955,13.0331297 32.8319956,12.9696154 C32.3854414,11.7745698 32.0356243,10.5316443 31.4141615,9.40109016 C30.6813044,8.55683885 29.7579046,7.90410751 28.8335275,7.26701045 C27.0170192,6.54685626 25.5034251,5.22478215 23.6722597,4.50853654 C23.7035282,4.90721077 23.7523854,5.30490786 23.7992882,5.70358209 C23.4328597,5.87946778 23.0830426,6.07001061 22.7322484,6.24491916 C22.7322484,6.34067915 22.7156369,6.53122198 22.7156369,6.62795911 C23.8149225,6.88201622 24.7392995,7.58360469 25.7907051,8.01354749 C26.761985,8.3477303 27.4635734,9.11283306 28.275579,9.70205012 C29.4227446,11.2312785 30.1077217,13.0477868 30.2669959,14.9434437 C31.5734357,15.6596893 32.3698071,16.9504949 33.3576984,18.0019004 C34.1061897,18.6389975 35.141961,18.813906 35.826938,19.5154945 C36.2734923,20.0089516 36.9584693,19.977683 37.5476864,20.1848373 C38.263932,20.360723 38.359692,21.2362429 38.5346005,21.8410942 C34.9181953,21.4433971 31.5568243,19.9620487 28.0361791,19.1803346 C25.5669394,18.4162089 23.0976997,17.5240776 20.5004544,17.3325577 C17.8084262,16.7277063 15.0997865,16.0427293 12.3276326,15.9147236 C10.0176672,15.6909579 7.67643325,15.5639293 5.38210213,15.9626036 C4.02778231,16.1853921 2.70570821,16.7589749 1.6855712,17.6833519 C1.43053695,17.9540204 0.984959867,18.1777861 1.01622843,18.6233632 C0.809074177,20.3284773 1.41392552,21.9690999 2.1956397,23.4504483 C3.53432524,24.8360367 4.74402793,26.3818764 6.353382,27.481162 C7.7712161,28.3889276 9.1411702,29.4725789 10.8140385,29.870276 C12.0403527,30.2210702 13.3155239,29.9494245 14.5408609,29.774516 C14.6366209,30.3158531 14.5731066,30.9207044 14.8437751,31.4151386 C15.862935,32.3873956 17.218232,32.8661956 18.4445461,33.5189269 C19.5115859,33.9811154 20.483843,34.7608753 21.6945228,34.8077782 C22.2671284,34.8879039 22.6667798,35.3979724 23.1915054,35.6051266 C24.6728538,36.114218 26.2499622,36.6408979 27.8270705,36.2412465 C30.3608016,35.6676638 32.6541556,34.4266925 35.059881,33.5013383 C36.1112866,32.513447 37.3542121,31.7170757 38.7564119,31.3027672 C40.078486,30.6656702 41.3849259,29.9973045 42.7871257,29.5986303 C43.0421599,30.1086988 43.2805827,30.6500359 43.487737,31.1757387 C42.65912,31.4307729 41.7826229,31.5744129 40.9706173,31.8929614 C40.270006,32.2584128 40.1107317,33.088007 39.6641775,33.677224 C38.517012,34.0426754 37.2740864,34.1228011 36.1435323,34.6338468 C34.6299382,35.2543324 33.0049498,35.7946923 31.7786357,36.9594464 C31.4122072,37.2291378 31.6359729,37.6913264 31.6994872,38.0421206 C30.3608016,38.8707376 29.9298817,40.4634803 29.2771503,41.7855544 C28.8305961,42.6464171 28.9586018,43.8248512 28.1143505,44.446314 C27.5094992,44.9407482 26.6965164,45.2270511 26.2988193,45.9599081 C25.0246252,46.1836738 24.1324939,47.2018565 23.0009626,47.7441707 C22.4908941,47.9356907 21.9173113,47.9200564 21.3749971,47.9825935 C21.8850656,48.684182 22.4107684,49.3525476 22.7136827,50.1645532 C23.3986597,49.6388505 24.147151,49.2079305 24.9757681,48.9861191 C26.3779679,48.6196906 27.3981049,47.5516736 28.624419,46.8510623 C29.3895218,46.4220966 29.7237046,45.5133539 30.4399502,45.0189196 C30.8865044,44.7003711 31.3154701,44.3495769 31.5558472,43.8404855 C31.93791,43.0597485 32.4479785,42.3259143 32.5114928,41.4347601 C32.6072528,40.9725716 32.6385213,40.3511088 33.0694413,40.0657832 C34.8859496,39.7941375 36.4308122,38.7104862 37.8007663,37.5476864 C38.6137491,37.0063493 39.2987261,36.066338 40.3970346,36.1943437 C40.5729202,36.5431836 40.3814003,36.9262236 40.2377603,37.2613836 C39.9670918,37.8828463 39.934846,38.5990919 39.585029,39.1902633 C38.9479319,40.256326 38.0235549,41.1318459 37.3708235,42.1832515 C36.6057208,43.3949084 36.1445094,44.7795197 35.4116524,46.0068109 C34.9817096,46.739668 34.9172182,47.6005307 34.5674011,48.3480449 C33.5638755,50.1635761 31.6682186,51.5178959 31.3330586,53.6539299 C31.2216644,54.2753927 30.5845673,54.5294498 30.2181388,54.9593926 C29.1667332,56.1700724 27.7010191,56.9195409 26.4737279,57.9230665 C26.8401564,58.4321578 27.2065849,58.9744721 27.4616192,59.5480548 L28.7993275,58.4956721 C28.9429675,58.7673178 29.1022418,59.022352 29.2615161,59.2764092 C29.4364246,58.8308321 29.5321846,58.3539864 29.7706074,57.9396779 C30.1370359,57.7481579 30.5835902,57.7804036 30.9500187,57.604518 C31.1249272,57.3016037 31.1249272,56.9351752 31.1415387,56.5843809 C31.84215,56.1231696 32.3834871,55.4704382 32.910167,54.8157526 C33.1007098,54.9584155 33.3088412,55.1030326 33.5159955,55.2466726 C33.5472641,55.0072726 33.595144,54.5128384 33.6273898,54.2744155 C35.0295896,53.3988957 35.6989323,51.806153 36.5588179,50.4674675 C37.0210064,49.717999 38.0411434,49.4307191 38.1994406,48.4760506 C38.5658691,47.4559136 39.0436919,46.4211195 39.9201889,45.7517767 C40.0950975,46.9780908 40.3823774,48.2053821 40.8758345,49.3525476 C41.529543,50.9765588 41.8637258,52.73053 42.6122171,54.3232727 C44.2372055,57.0788152 45.9257081,60.0434662 48.841502,61.6195974 C49.9564218,62.4003345 51.5657759,62.2723288 52.6484501,61.4915917 C53.7633699,60.8877175 54.7180383,60.0434662 55.4039925,58.9754492 C56.0567239,57.9396779 57.0123695,57.159918 57.6338322,56.1075353 C58.5259635,54.6105526 59.7043977,53.2239871 60.0073119,51.4553588 C60.5506033,49.8938847 60.8202947,48.2845306 61.1232089,46.6595423 C60.9004204,45.7840224 61.9039459,45.9755424 62.3338887,45.7517767 C62.7159516,46.8197937 63.5133,47.6464564 64.1181514,48.5874449 C64.5011913,49.2567877 65.5516197,48.9226048 65.8711454,49.6544847 C66.2854539,50.5954732 66.731031,51.5178959 67.3671509,52.3308787 C67.7824366,53.0002214 68.6266879,53.1907643 69.3585678,53.3021585 C69.6771163,53.9715013 69.9800306,54.6398669 70.2829448,55.3258211 C70.4578534,55.1665469 70.6181048,54.9906612 70.7920362,54.8313869 C71.5727732,55.5153868 72.2743617,56.3293467 73.2290301,56.7915352 C73.4684301,56.9029295 73.7068529,56.6947981 73.9462529,56.6478952 C74.3283157,57.0465695 74.6947442,57.460878 75.076807,57.8585751 L75.028927,56.9498323 C75.6191212,56.5355238 76.1760926,56.057701 76.5259097,55.4049697 C76.0168183,55.2935754 75.4745041,55.2300611 74.981047,55.0385412 C74.20031,54.6721126 73.7224872,53.8757413 72.9095045,53.5738042 C71.8737332,53.1438614 70.9180876,52.4422729 70.2653562,51.5178959 C70.0894706,50.9619017 70.3132362,50.2915818 69.9155392,49.7981247 C69.4689849,49.2235648 68.9921393,48.649982 68.3374537,48.3314335 C67.8928537,48.0617421 67.1922424,47.9347135 67.1766081,47.2810051 C66.9850881,46.1015938 66.5385339,44.9710397 65.758774,44.0632741 C64.9936712,43.2669027 64.5168256,42.2467657 63.81426,41.3868801 C63.2103858,40.4781374 62.3182545,39.7931604 61.6801803,38.901029 C60.644409,37.6737378 60.0542148,36.1611208 59.624272,34.6485039 C61.3137517,34.8859496 62.8742487,35.7937152 64.0370485,37.0210064 C64.5158485,37.5467092 65.2477284,37.6737378 65.8213111,38.0577549 C66.5698025,38.4232063 67.2244881,39.2518233 68.147888,38.9498862 C68.9921393,40.7976631 69.5500878,42.9317428 71.1750761,44.302674 C73.5329215,45.6403824 75.7783955,47.6962907 78.6463094,47.6962907 C78.8544408,47.0748279 79.1084979,46.4699766 79.3635322,45.8797824 C78.9961265,45.8328795 78.6306751,45.7840224 78.2798809,45.7371196 C78.1684866,45.4342053 78.0737038,45.1479025 77.9769666,44.8449882 C77.3076239,44.829354 76.5591325,44.9417254 75.9855498,44.5274169 C75.2370584,44.0007369 74.3449271,43.7466798 73.5798244,43.2366113 C73.1508587,42.6630285 72.9593387,41.9477601 72.5450302,41.3732001 C72.7678188,39.6837204 70.6640305,38.7456634 71.0148247,37.0239379 C70.6806419,36.881275 70.3620934,36.7376351 70.0269334,36.5939951 C70.0591791,36.244178 70.0757906,35.8933837 70.1070591,35.5435666 C67.0964824,34.3807668 63.86214,33.8384526 60.9463461,32.4528642 C59.8157919,31.5929786 58.7165064,30.637333 57.2820609,30.3344188 C57.7608608,30.3178073 58.2543179,30.3021731 58.7321407,30.3344188 C58.7008721,30.2542931 58.6529921,30.1106531 58.6207464,30.0315045 C58.3344436,29.9513788 57.7452265,29.808716 57.4579465,29.7285903 C57.968015,29.4745332 58.5415978,29.1872532 59.083912,29.5859274 C61.0743518,30.3989102 62.8908601,31.5929786 64.9457913,32.2466871 C67.1609738,33.3616069 69.5979678,33.950824 71.9870817,34.6367782 C73.5964358,34.8595667 75.3171841,34.6201668 76.7985325,33.9185783 C78.5827951,33.2345784 79.9527492,31.80111 81.7057433,31.068253 C82.8040517,30.4311559 83.8710916,29.6660531 84.6674629,28.6625276 C85.06516,27.9931848 85.2889257,27.2290592 85.5595942,26.4962021 C87.0419197,26.5597164 88.6024166,26.6877221 89.988005,26.0496479 C91.3110563,25.6353394 92.2979704,24.6474481 93.349376,23.8031968 C94.5111987,22.5133684 95.8508614,21.3818371 96.7752384,19.9004887 C97.635124,18.5784146 98.6386496,17.2240948 98.6699181,15.5834722 C98.7383181,15.006958 98.6425581,14.3053695 98.1158782,13.9711867 Z M54.338907,57.5898608 C53.9402327,58.180055 53.5093128,58.8005407 52.8888272,59.165992 C51.4553588,59.2773863 49.9740104,59.405392 48.5395649,59.1982377 C47.9337364,58.8484206 46.8989423,58.0207808 47.4402793,57.2234323 C47.6308222,56.9361523 47.9024678,56.6967524 48.2532621,56.6166267 C49.1610277,56.529661 50.0687933,56.4876438 50.977536,56.4895981 C51.8853016,56.4925295 52.7940443,56.5374781 53.7008328,56.6166267 C54.147387,56.6820952 54.5929641,57.1286494 54.338907,57.5898608 Z M56.7602666,54.2763698 C52.77841,54.4835241 48.7945991,54.4678898 44.8283768,54.6584326 C44.4453369,53.8454499 44.0789083,53.0344214 43.8082398,52.189193 C46.1338395,51.6478559 48.5395649,51.7758616 50.8974103,51.6478559 C52.0533701,51.6244045 53.2200785,51.5687073 54.3819012,51.5726159 C55.5447011,51.5765245 56.7045695,51.6390616 57.8429408,51.8550102 C57.5243923,52.6836272 57.1266952,53.4643642 56.7602666,54.2763698 Z M58.9588378,48.9870963 C56.4417181,49.1932734 53.9089642,49.2098848 51.3752331,49.2577648 C48.4594392,49.3847933 45.5289882,49.4961876 42.6288285,49.2255191 C42.3737943,48.3969021 42.1510058,47.5692622 41.9282172,46.7406451 C44.206914,46.3585823 46.5325137,46.5491252 48.8268449,46.4709537 C51.0127131,46.4103709 53.2073757,46.3253595 55.3981297,46.3185195 C56.1290324,46.3165652 56.8599352,46.322428 57.5888837,46.342948 C58.289495,46.2804109 58.9588378,46.5031994 59.5803005,46.7719137 C59.3878034,47.5213822 59.1650149,48.2386049 58.9588378,48.9870963 Z M60.1372719,41.2442173 C60.1851519,42.1197372 60.2486662,42.9962342 60.2799347,43.8727312 C53.9715013,44.3183083 47.6308222,44.0320055 41.3067544,44.1111541 C41.2745087,43.2033885 41.2745087,42.3112572 41.3067544,41.4034916 C46.4064623,41.4806858 51.5071473,41.2432402 56.6078324,41.2197887 C57.7862665,41.2168573 58.9607921,41.2207659 60.1372719,41.2442173 Z M58.2572493,36.3067151 C58.5279178,37.0219836 59.0076949,37.7079378 59.0076949,38.4876977 C58.4966493,39.1902633 57.508758,38.9020062 56.7925123,39.0134005 C51.7260273,39.1570404 46.643908,39.331949 41.5784001,39.0456462 C41.8011887,38.1857606 42.0884686,37.3405321 42.3425257,36.4972579 C46.3214509,36.3643665 50.3003761,36.2959665 54.2783241,36.2901037 C55.6043068,36.2891265 56.9322438,36.2949894 58.2572493,36.3067151 Z" id="Shape"></path>
                </g>
            </g>
        </g>
    </g>
</svg>